<?xml version="1.0" standalone="no"?>
<!DOCTYPE svg PUBLIC "-//W3C//DTD SVG 20010904//EN"
 "http://www.w3.org/TR/2001/REC-SVG-20010904/DTD/svg10.dtd">
<svg version="1.0" xmlns="http://www.w3.org/2000/svg"
 width="1780.000000pt" height="2048.000000pt" viewBox="0 0 1780.000000 2048.000000"
 preserveAspectRatio="xMidYMid meet">
<metadata>
Created by potrace 1.16, written by Peter Selinger 2001-2019
</metadata>
<g transform="translate(0.000000,2048.000000) scale(0.100000,-0.100000)"
fill="#000000" stroke="none">
<path d="M8621 20443 c-41 -40 -5273 -6298 -5323 -6367 -18 -25 -28 -50 -26
-66 l3 -25 3170 3 c1744 2 4163 7 5377 10 2078 7 2208 8 2225 24 16 17 15 20
-14 61 -40 58 -5221 6368 -5241 6385 -9 6 -42 12 -74 12 -54 0 -62 -3 -97 -37z
m1354 -3082 c420 -115 680 -488 745 -1066 13 -119 13 -404 -1 -501 -60 -431
-275 -696 -635 -781 -117 -27 -357 -24 -477 5 -285 70 -483 233 -620 507 -187
374 -223 992 -81 1353 72 181 209 342 359 419 148 76 233 93 460 89 137 -3
186 -8 250 -25z m-2075 -5 c289 -44 466 -165 541 -372 18 -48 22 -81 22 -179
0 -139 -21 -231 -76 -341 -99 -195 -238 -329 -794 -758 -178 -137 -323 -253
-323 -258 0 -4 227 -8 505 -8 490 0 505 -1 505 -19 0 -22 -47 -355 -55 -388
l-5 -23 -840 0 -840 0 5 23 c3 12 18 109 35 216 16 107 33 197 37 201 4 4 229
179 498 389 506 394 616 490 675 587 63 105 85 240 54 343 -20 69 -86 141
-157 171 -65 29 -225 39 -319 21 -110 -21 -305 -92 -434 -156 -111 -56 -125
-61 -121 -42 3 12 20 124 38 248 l33 226 96 26 c332 93 684 128 920 93z"/>
<path d="M9600 16969 c-121 -55 -174 -173 -190 -424 -18 -303 29 -731 102
-915 46 -116 120 -196 210 -226 67 -22 187 -16 243 13 139 73 197 285 181 666
-23 557 -116 827 -305 892 -66 22 -185 19 -241 -6z"/>
<path d="M9730 19915 c0 -10 4772 -5810 4798 -5832 15 -13 40 -23 56 -23 25 0
2481 1115 2658 1207 87 45 95 66 42 110 -21 18 -379 237 -794 486 -415 250
-2104 1264 -3752 2255 -1648 991 -2999 1802 -3002 1802 -4 0 -6 -2 -6 -5z
m4342 -3635 c271 -154 528 -294 572 -312 63 -24 97 -31 154 -32 66 -1 76 1 93
23 10 13 19 35 19 50 0 100 -199 311 -467 493 l-78 53 134 3 c102 2 139 -1
155 -12 11 -7 98 -86 191 -173 321 -302 488 -526 489 -659 1 -88 -51 -124
-178 -124 -159 0 -339 78 -851 370 -165 94 -319 182 -342 196 -24 14 -43 21
-43 17 0 -5 115 -141 255 -303 l255 -295 -112 -3 c-61 -1 -117 -1 -123 2 -11
4 -810 922 -843 968 -12 17 -7 18 107 18 l121 0 492 -280z"/>
<path d="M7381 19632 c-62 -42 -1641 -1083 -3509 -2312 -1868 -1229 -3396
-2239 -3395 -2245 1 -15 2160 -993 2220 -1005 43 -9 58 -9 86 5 25 12 636 735
2263 2678 1226 1464 2282 2724 2347 2800 158 188 157 193 -12 79z m-3321
-2987 c79 -41 45 -163 -108 -390 -236 -352 -538 -588 -903 -709 -134 -44 -195
-52 -243 -32 -46 19 -61 55 -48 114 5 23 7 42 5 42 -3 0 -40 -32 -82 -72 -192
-179 -400 -298 -604 -343 -88 -20 -137 -14 -167 17 -11 12 -20 34 -20 50 0 36
39 139 79 206 244 413 580 689 953 784 90 22 137 19 170 -14 17 -17 20 -29 15
-69 -3 -27 -4 -49 -1 -49 2 0 37 32 76 70 80 80 188 164 302 234 206 129 487
207 576 161z"/>
<path d="M3574 16300 c-222 -44 -503 -261 -522 -402 -6 -46 12 -68 57 -68 85
0 276 76 384 154 150 107 254 265 205 314 -13 13 -62 14 -124 2z"/>
<path d="M2675 15986 c-153 -49 -311 -172 -374 -291 -25 -48 -26 -59 -4 -80
37 -37 218 19 340 105 109 76 198 191 191 247 -3 27 -6 28 -58 30 -30 1 -73
-4 -95 -11z"/>
<path d="M17500 14968 c-1664 -755 -2659 -1214 -2677 -1234 -14 -15 -23 -38
-23 -58 0 -20 271 -719 696 -1797 382 -970 1056 -2679 1497 -3798 l802 -2034
3 509 c2 418 -15 1206 -93 4427 -53 2155 -99 3935 -103 3955 -7 33 -11 37 -42
39 -19 1 -46 -3 -60 -9z m12 -1994 l4 -111 -133 -86 -133 -86 0 -53 c0 -99 59
-1151 65 -1156 3 -4 64 52 134 122 l129 128 5 -48 c4 -27 9 -96 12 -154 l6
-105 -137 -130 c-105 -99 -171 -152 -278 -221 -78 -50 -142 -88 -143 -85 -1 3
-18 341 -39 751 -20 410 -41 749 -45 754 -4 4 -35 -8 -68 -29 l-61 -36 0 -48
0 -48 -92 -5 c-113 -7 -180 -30 -275 -98 -138 -96 -202 -204 -211 -352 -6
-115 13 -173 66 -195 63 -26 144 0 275 89 l57 39 0 -38 c0 -21 3 -88 6 -149
l7 -111 -96 -62 c-181 -117 -247 -217 -247 -372 0 -87 16 -141 48 -158 70 -37
179 15 318 154 56 55 112 115 126 133 l25 34 6 -168 7 -168 -52 -54 c-230
-234 -506 -390 -627 -354 -54 17 -106 78 -128 149 -24 80 -24 283 1 373 24 86
73 184 129 257 l46 60 -58 -1 c-111 -1 -178 76 -202 234 -15 98 -6 274 20 371
66 255 241 468 520 633 48 28 107 58 132 66 24 8 228 132 454 276 l410 260 7
-45 c3 -25 8 -96 10 -157z"/>
<path d="M270 14741 c0 -6 -61 -1911 -135 -4233 -75 -2323 -134 -4259 -133
-4304 l3 -80 1260 3699 c693 2034 1271 3732 1284 3773 18 57 21 81 14 97 -8
17 -275 143 -1143 537 -623 283 -1137 517 -1141 518 -5 2 -9 -1 -9 -7z m338
-2232 c106 -52 192 -173 243 -339 l23 -75 7 50 c4 28 8 76 8 107 l1 58 283
-171 c155 -94 283 -172 284 -173 1 -1 -3 -63 -10 -139 l-12 -137 -88 51 c-48
28 -91 48 -94 45 -5 -5 -92 -1037 -88 -1043 1 -2 43 -11 94 -22 50 -10 94 -21
96 -23 5 -5 -14 -260 -19 -266 -2 -2 -44 4 -92 13 -77 14 -103 25 -192 78
l-103 62 6 50 c3 28 25 304 50 615 25 311 47 588 50 616 l6 52 -81 47 c-45 25
-84 44 -87 41 -3 -3 0 -56 6 -118 35 -363 -27 -778 -144 -955 -49 -74 -95
-105 -161 -111 -80 -7 -160 36 -265 140 l-81 80 7 132 c4 72 10 135 14 139 4
4 19 -9 33 -30 73 -109 157 -173 228 -173 52 0 101 58 128 151 22 77 38 169
29 169 -2 0 -18 -7 -33 -15 -43 -22 -83 -18 -141 15 -93 54 -165 169 -210 339
-22 83 -26 117 -26 251 0 219 35 362 110 450 66 77 125 87 221 39z"/>
<path d="M537 12248 c-64 -49 -91 -385 -40 -498 39 -87 103 -121 147 -77 31
31 43 76 57 202 14 131 5 236 -26 300 -34 71 -96 104 -138 73z"/>
<path d="M7632 13615 c-2459 -7 -4479 -16 -4488 -19 -11 -4 -14 -13 -10 -29 3
-13 304 -527 669 -1143 365 -615 1612 -2719 2772 -4674 1159 -1955 2121 -3574
2137 -3597 40 -59 66 -58 111 4 63 88 5351 9397 5352 9423 0 16 -8 28 -25 37
-30 15 -170 15 -6518 -2z m-172 -2170 l0 -215 515 0 515 0 0 -254 0 -254 -463
-688 -463 -689 -332 -3 -332 -2 0 735 0 735 -165 0 -165 0 0 210 0 210 165 0
165 0 0 215 0 215 280 0 280 0 0 -215z m3020 10 l0 -205 -260 0 -260 0 0 -755
c0 -415 4 -755 8 -755 7 0 463 94 510 105 l22 5 0 -200 c0 -110 -4 -200 -8
-200 -5 0 -127 -25 -273 -55 l-264 -55 -282 0 -283 0 0 955 0 955 -260 0 -260
0 0 205 0 205 805 0 805 0 0 -205z"/>
<path d="M7460 10313 c0 -420 2 -495 14 -483 16 18 656 969 656 975 0 3 -151
5 -335 5 l-335 0 0 -497z"/>
<path d="M14474 13338 c-15 -29 -1205 -2127 -2646 -4661 -1440 -2534 -2643
-4651 -2673 -4705 -30 -53 -55 -109 -55 -124 0 -46 -142 -63 1920 222 316 44
820 113 1120 154 300 42 986 136 1525 210 539 75 1653 228 2475 341 822 113
1512 210 1534 216 77 21 99 67 75 154 -6 21 -724 1851 -1596 4065 -872 2214
-1597 4060 -1610 4103 -13 42 -28 77 -33 77 -6 0 -22 -24 -36 -52z m-614
-5209 c115 -89 211 -166 213 -173 3 -6 159 -371 347 -811 l341 -799 -167 -248
c-91 -137 -169 -250 -173 -252 -3 -2 -285 209 -626 470 -341 261 -623 474
-626 474 -3 0 -43 -56 -89 -124 -52 -76 -89 -122 -95 -117 -5 5 -85 66 -177
136 -93 70 -168 130 -168 134 0 3 38 62 85 131 l85 124 -27 22 c-16 13 -96 74
-180 136 -85 63 -150 118 -148 125 9 26 278 413 287 413 8 0 276 -203 339
-257 15 -13 44 26 285 381 148 218 272 396 277 396 4 0 102 -72 217 -161z"/>
<path d="M13635 7486 c-93 -139 -169 -257 -167 -262 5 -14 827 -644 830 -635
3 9 -481 1151 -488 1150 -3 0 -81 -114 -175 -253z"/>
<path d="M2835 13291 c-4 -8 -480 -1407 -2320 -6822 -227 -668 -418 -1239
-424 -1268 -23 -106 -10 -150 53 -180 51 -24 -243 20 2676 -402 2637 -380
3639 -525 4769 -689 382 -55 717 -100 746 -100 28 0 56 5 63 12 25 25 13 82
-37 168 -26 47 -731 1237 -1566 2645 -1975 3331 -3875 6537 -3909 6598 -26 46
-39 56 -51 38z m901 -4810 c-47 -31 -86 -59 -86 -63 0 -3 17 -9 38 -13 61 -10
183 -67 274 -128 155 -103 314 -271 438 -462 229 -353 249 -693 55 -990 -59
-92 -225 -251 -340 -328 -308 -204 -605 -265 -909 -187 -100 26 -277 111 -371
177 -244 174 -508 519 -661 864 -25 56 -44 103 -42 104 2 1 71 48 154 103
l152 101 32 -97 c37 -113 120 -292 175 -377 130 -204 293 -337 468 -382 114
-29 283 -7 397 52 l33 17 -60 32 c-98 53 -183 118 -268 207 -283 296 -404 650
-315 919 45 138 157 261 301 331 38 19 69 36 69 40 0 3 -56 82 -125 175 -69
94 -120 173 -116 177 5 5 103 71 217 146 l209 137 183 -250 183 -249 -85 -56z"/>
<path d="M3667 7891 c-109 -36 -237 -137 -283 -222 -14 -25 -19 -56 -19 -114
0 -71 4 -88 33 -148 66 -133 184 -230 298 -243 104 -13 256 52 358 153 66 65
90 120 90 205 0 56 -6 78 -38 142 -95 193 -269 283 -439 227z"/>
<path d="M756 4531 c9 -10 573 -330 5700 -3239 1232 -699 2252 -1273 2265
-1277 43 -10 54 7 51 82 -15 405 -174 3236 -183 3261 -13 39 -44 57 -124 71
-51 9 -1081 158 -4335 626 -360 52 -1264 182 -2009 290 -745 107 -1359 195
-1365 195 -6 0 -6 -3 0 -9z m6187 -1507 c129 -33 282 -126 371 -224 57 -64 90
-142 90 -217 0 -112 -87 -250 -228 -362 -103 -82 -229 -157 -334 -197 -53 -21
-100 -41 -105 -44 -4 -3 22 -28 58 -54 l65 -48 -22 -17 c-58 -45 -270 -182
-277 -179 -17 6 -250 183 -251 190 0 3 20 19 44 34 50 31 50 44 3 44 -48 0
-187 36 -252 64 -88 39 -192 113 -283 200 -73 70 -131 142 -121 150 2 2 49 33
103 69 l99 66 36 -61 c70 -120 180 -212 300 -248 75 -24 192 -26 267 -6 59 15
174 66 174 76 0 3 -29 12 -65 19 -99 20 -211 79 -288 151 -161 150 -164 312
-8 451 89 79 225 142 356 163 52 8 204 -3 268 -20z"/>
<path d="M6798 2807 c-65 -19 -152 -74 -204 -129 -38 -41 -44 -53 -44 -92 0
-56 32 -96 103 -133 77 -39 158 -35 253 11 82 41 166 111 184 156 26 62 -14
132 -99 175 -45 23 -134 28 -193 12z"/>
<path d="M16445 4445 c-543 -76 -1117 -156 -3395 -470 -3342 -462 -4014 -556
-4033 -566 -33 -18 -37 -28 -37 -109 0 -96 168 -3247 175 -3277 5 -21 11 -23
67 -23 l62 0 1920 1112 c1057 611 2803 1622 3881 2246 1078 623 1974 1142
1990 1153 l30 19 -35 -1 c-19 -1 -300 -39 -625 -84z m-4099 -1612 c152 -170
284 -316 294 -326 15 -17 27 -11 246 118 l229 136 57 -63 c31 -35 57 -65 58
-68 0 -3 -582 -350 -1292 -772 l-1293 -766 -57 56 c-32 31 -58 61 -58 67 0 6
99 69 220 140 121 71 220 133 220 138 0 5 -89 106 -197 225 -109 118 -214 233
-233 255 l-36 40 -214 -157 -214 -157 -59 59 c-33 33 -57 65 -53 70 20 32 454
329 660 451 l239 142 23 -23 c12 -13 142 -156 289 -318 147 -162 273 -296 279
-298 9 -2 706 404 723 422 4 3 -456 511 -466 514 -5 2 -105 -67 -223 -152
l-213 -155 -57 62 c-31 34 -57 64 -57 67 1 18 456 330 659 452 135 81 246 147
247 148 1 0 127 -138 279 -307z"/>
</g>
</svg>
